<?xml version="1.0" encoding="UTF-8" standalone="no"?>
<!-- Created with Inkscape (http://www.inkscape.org/) -->

<svg
   width="112.28166mm"
   height="15.895255mm"
   viewBox="0 0 112.28166 15.895255"
   version="1.1"
   id="svg5"
   inkscape:version="1.1.2 (0a00cf5339, 2022-02-04)"
   sodipodi:docname="meinamsterdam.svg"
   xmlns:inkscape="http://www.inkscape.org/namespaces/inkscape"
   xmlns:sodipodi="http://sodipodi.sourceforge.net/DTD/sodipodi-0.dtd"
   xmlns="http://www.w3.org/2000/svg"
   xmlns:svg="http://www.w3.org/2000/svg">
  <sodipodi:namedview
     id="namedview7"
     pagecolor="#ffffff"
     bordercolor="#666666"
     borderopacity="1.0"
     inkscape:pageshadow="2"
     inkscape:pageopacity="0.0"
     inkscape:pagecheckerboard="0"
     inkscape:document-units="mm"
     showgrid="false"
     inkscape:zoom="0.64052329"
     inkscape:cx="469.92827"
     inkscape:cy="218.57129"
     inkscape:window-width="1680"
     inkscape:window-height="988"
     inkscape:window-x="0"
     inkscape:window-y="25"
     inkscape:window-maximized="1"
     inkscape:current-layer="layer1" />
  <defs
     id="defs2" />
  <g
     inkscape:label="Layer 1"
     inkscape:groupmode="layer"
     id="layer1"
     transform="translate(-22.208656,-115.72298)">
    <path
       style="fill:#000000;stroke-width:0.179363"
       d="m 61.399617,131.42646 c -0.859717,-0.31468 -1.815155,-1.35237 -2.061418,-2.23889 -0.838936,-3.02007 0.911319,-7.4477 3.944737,-9.97903 1.898299,-1.5841 4.954201,-2.39989 5.757991,-1.53713 0.194891,0.20919 0.50603,0.38035 0.691418,0.38035 0.6434,0 0.901626,0.22004 1.093209,0.93153 0.255629,0.94933 0.01336,2.46306 -0.902622,5.63989 -0.804762,2.79108 -0.948364,4.36976 -0.397484,4.36976 0.17793,0 0.722747,-0.19929 1.210704,-0.44287 l 0.887194,-0.44287 0.385831,-2.02338 c 0.536119,-2.81152 0.627807,-3.00988 1.391279,-3.00988 0.774982,0 0.877693,0.27211 0.643219,1.70405 -0.291944,1.78291 -0.212798,1.86426 0.523441,0.538 1.085197,-1.95487 1.632108,-2.43646 2.422476,-2.13317 0.336901,0.12927 0.381555,1.23555 0.09197,2.27838 -0.315689,1.13687 -0.108181,1.09743 0.587186,-0.11158 0.906277,-1.57573 1.527575,-2.27568 2.019954,-2.27568 0.72293,0 0.880178,0.4061 0.71348,1.8426 -0.08272,0.71295 -0.154679,1.90162 -0.159892,2.6415 -0.0089,1.26183 0.01552,1.34878 0.39409,1.40254 0.266628,0.0379 0.403566,-0.0352 0.403566,-0.21528 0,-0.14992 0.368797,-0.57928 0.819553,-0.95413 0.450749,-0.37485 1.425861,-1.47093 2.166912,-2.43574 1.488554,-1.938 1.996912,-2.36501 2.663826,-2.23752 0.339376,0.0649 0.448079,0.01 0.448079,-0.22728 0,-0.35952 0.489423,-0.52819 1.542807,-0.53169 l 0.735675,-0.003 0.324854,-1.20011 c 0.17867,-0.66006 0.598595,-1.74728 0.933157,-2.41603 0.979302,-1.95751 1.937243,-2.43541 2.807835,-1.40077 0.869284,1.03309 0.789345,2.52495 -0.237187,4.42655 l -0.504317,0.93423 1.277209,0.0523 c 1.06261,0.0435 1.287548,0.10646 1.338764,0.37478 0.126871,0.66473 -0.28698,0.84336 -1.953906,0.84336 h -1.583184 l -0.457535,0.59986 c -0.416278,0.54577 -0.457535,0.75354 -0.457535,2.30393 0,1.46978 0.04874,1.7482 0.354669,2.02504 0.458043,0.41452 1.313064,0.28737 2.416694,-0.3594 0.69961,-0.41 0.815906,-0.56024 0.815906,-1.05405 0,-1.04792 0.719533,-2.8 1.449771,-3.53024 1.850769,-1.85077 4.535727,-0.47722 3.745812,1.91624 -0.273055,0.82738 -1.58153,2.12813 -2.418695,2.40442 -0.718991,0.23729 -0.760059,0.35876 -0.27096,0.80139 0.299304,0.27087 0.465703,0.29151 1.084195,0.13452 1.031901,-0.26193 2.689015,-1.30571 2.764855,-1.74153 0.28889,-1.65999 0.84959,-3.94801 1.0169,-4.1496 0.27881,-0.33595 0.99462,-0.31311 1.12859,0.036 0.0598,0.15587 0.0647,0.74105 0.011,1.30039 l -0.0977,1.01699 0.44843,-0.82918 c 0.71881,-1.3291 1.74614,-2.03605 2.37497,-1.63433 0.29145,0.18618 0.32385,0.52361 0.16303,1.69796 -0.0774,0.56545 -0.0885,1.23625 -0.0247,1.49065 0.0984,0.39218 0.20217,0.45409 0.68167,0.40682 0.46575,-0.0459 0.65749,-0.21403 1.08631,-0.95256 0.75011,-1.29186 1.33028,-1.83792 2.36018,-2.22143 l 0.90813,-0.33817 0.1119,-0.96225 c 0.49731,-4.27666 2.96878,-7.74657 4.45731,-6.25803 0.50004,0.50004 0.60493,1.08577 0.49398,2.75849 -0.10686,1.6111 -0.67553,3.44972 -1.90715,6.16618 -0.84447,1.86256 -1.08795,3.17474 -0.68777,3.70664 0.54727,0.7274 2.05932,-0.23228 2.41255,-1.53122 0.6816,-2.50645 3.41803,-4.84285 4.51223,-3.85261 0.17646,0.15969 0.48066,0.29035 0.676,0.29035 0.19534,0 0.50943,0.11281 0.69798,0.25068 0.3367,0.2462 0.33556,0.29035 -0.0637,2.47482 -0.55527,3.03807 -0.3382,3.45581 1.10466,2.12583 0.73472,-0.67725 0.78278,-0.78606 1.07459,-2.43296 0.16801,-0.9482 0.42353,-2.00656 0.56783,-2.35191 0.23358,-0.55905 0.32676,-0.62171 0.84956,-0.57139 0.55429,0.0533 0.59034,0.10015 0.64314,0.83489 0.0308,0.4281 -0.0241,1.1535 -0.12185,1.61199 -0.0978,0.4585 -0.15599,0.85544 -0.12934,0.88209 0.0266,0.0266 0.47077,-0.64262 0.98693,-1.48728 0.97977,-1.60335 1.5862,-2.10207 2.13691,-1.75737 0.40826,0.25554 0.46177,1.08403 0.1477,2.28674 -0.14415,0.55203 -0.20923,1.00183 -0.1446,0.99954 0.0646,-0.002 0.43219,-0.56369 0.81682,-1.24758 0.91473,-1.62642 1.54767,-2.23884 2.15608,-2.08614 0.64501,0.16189 0.70715,0.64073 0.38392,2.95823 -0.15464,1.10871 -0.23175,2.21268 -0.17137,2.45328 0.16491,0.65708 0.78697,0.5521 1.74961,-0.29524 l 0.83239,-0.7327 v 0.89808 c 0,0.82556 -0.0578,0.94759 -0.71609,1.51104 -0.70266,0.60145 -1.73508,1.02928 -2.48382,1.02928 -0.65266,0 -0.92434,-0.84419 -0.93513,-2.90576 l -0.01,-1.84738 -0.80587,2.05785 c -0.44323,1.13183 -0.93567,2.20128 -1.0943,2.37657 -0.38098,0.42098 -1.07029,0.40604 -1.3027,-0.0282 -0.23962,-0.44773 -0.23698,-1.82075 0.006,-3.13527 0.10543,-0.57035 0.15193,-1.07676 0.10333,-1.12537 -0.0486,-0.0486 -0.59897,0.94804 -1.22304,2.21476 -0.99772,2.02513 -1.19286,2.30985 -1.61669,2.35881 -0.35476,0.0409 -0.56091,-0.0647 -0.78079,-0.4003 l -0.29875,-0.45597 -0.75957,0.44514 c -1.05706,0.61947 -1.59196,0.57962 -2.18432,-0.16276 l -0.48504,-0.60789 -0.70964,0.51405 c -0.3903,0.28273 -0.98395,0.56552 -1.31922,0.62842 -0.71435,0.13401 -1.61452,-0.18703 -1.87167,-0.66752 -0.16888,-0.31555 -0.23066,-0.30491 -1.18426,0.20396 -0.55335,0.29528 -1.17633,0.53657 -1.38441,0.53621 -0.54371,-6.8e-4 -1.4912,-0.62603 -1.6348,-1.07848 -0.12232,-0.38538 -0.12371,-0.38546 -0.50927,-0.0326 -0.59259,0.54233 -1.83638,1.11176 -2.42839,1.11176 -0.76521,0 -1.59828,-0.77077 -1.8307,-1.69381 -0.16968,-0.67388 -0.24227,-0.75242 -0.62736,-0.6788 -1.04765,0.20026 -1.87637,-0.57157 -2.14372,-1.99655 -0.0701,-0.3739 -0.18671,-0.61325 -0.25906,-0.53189 -0.0723,0.0814 -0.46994,1.1132 -0.88355,2.293 -0.81255,2.31774 -0.97343,2.60805 -1.44521,2.60805 -0.36876,0 -0.90266,-0.54723 -0.90266,-0.9252 0,-0.21026 -0.23337,-0.15351 -1.066099,0.25922 -1.864571,0.92417 -3.482199,0.83254 -4.392077,-0.24879 l -0.447732,-0.5321 -1.235592,0.64727 c -0.679571,0.35599 -1.570928,0.69224 -1.980779,0.74721 -0.684235,0.0918 -0.796449,0.0456 -1.37173,-0.56437 -0.344602,-0.36538 -0.626545,-0.77965 -0.626545,-0.9206 0,-0.34131 -0.118668,-0.32392 -0.722164,0.10581 -0.774641,0.55159 -2.774597,1.24823 -3.930284,1.36902 -1.155444,0.12077 -2.130156,-0.12273 -2.608917,-0.65176 -0.303486,-0.33535 -0.323017,-0.33315 -0.995361,0.11178 -0.983166,0.65063 -1.958373,0.74871 -2.416403,0.24302 -0.310937,-0.34329 -0.357733,-0.64834 -0.357733,-2.33196 0,-1.06536 -0.04379,-1.91011 -0.09732,-1.87723 -0.05355,0.0329 -0.457101,1.00118 -0.896821,2.15177 -0.826494,2.16264 -1.123805,2.53197 -1.884535,2.34104 -0.584521,-0.14671 -0.720395,-1.02225 -0.454078,-2.92599 0.11717,-0.83757 0.181544,-1.55436 0.143053,-1.59285 -0.03851,-0.0385 -0.529873,0.89129 -1.091959,2.06618 -0.562088,1.1749 -1.139209,2.23347 -1.282491,2.35239 -0.345866,0.28704 -1.176693,0.069 -1.282773,-0.33667 -0.07653,-0.29263 -0.151034,-0.2834 -0.96544,0.11965 -0.485381,0.24021 -1.226507,0.47497 -1.646942,0.52167 -0.656186,0.0729 -0.827923,0.017 -1.212838,-0.39471 -0.381904,-0.40851 -0.448409,-0.65039 -0.448409,-1.63084 0,-0.63316 -0.01853,-1.15141 -0.0412,-1.15167 -0.02266,-2.5e-4 -0.207759,0.32602 -0.411336,0.72507 -0.515535,1.01053 -1.544506,2.1035 -2.383098,2.53131 -0.933344,0.47616 -2.352225,0.58612 -3.262734,0.25284 z m 3.347765,-2.05496 c 0.836712,-0.53063 1.810286,-1.90045 2.372459,-3.33805 0.482247,-1.23322 1.922704,-6.77411 1.826339,-7.02524 -0.113523,-0.29583 -1.256944,-0.31502 -2.094047,-0.0352 -1.003501,0.3355 -2.41936,1.51197 -3.292908,2.73614 -1.929891,2.7045 -2.666119,5.59964 -1.868913,7.34931 0.434747,0.95416 1.822064,1.0962 3.05707,0.31298 z m 19.849173,0.025 c 0.396089,-0.33802 0.441801,-0.55234 0.410041,-1.92254 l -0.02068,-0.89121 -1.076182,1.06496 c -0.591903,0.58572 -1.076182,1.1292 -1.076182,1.20772 0,0.14289 1.064434,0.85303 1.280518,0.85429 0.06305,3.8e-4 0.28016,-0.14058 0.482455,-0.31322 z m 25.845975,-0.71348 c 0.52758,-0.64005 0.55115,-0.73973 0.55115,-2.33172 0,-0.9147 -0.0628,-1.66309 -0.13946,-1.66309 -1.15165,0 -2.64192,3.92054 -1.69902,4.46972 0.51372,0.29922 0.70844,0.22739 1.28733,-0.47491 z m 8.50014,-0.0121 c 0.32201,-0.55289 1.00433,-3.14402 1.01458,-3.85282 0.004,-0.29752 -0.0315,-0.29982 -0.54371,-0.035 -1.13312,0.58596 -2.28365,3.27506 -1.79326,4.19135 0.29901,0.55872 0.90064,0.4206 1.32239,-0.30357 z m -30.95064,-0.3886 1.096648,-0.53123 0.05613,-1.99749 c 0.03091,-1.09862 0.0081,-2.02696 -0.05064,-2.06299 -0.05871,-0.036 -0.442126,-0.11913 -0.851977,-0.18467 -0.591592,-0.0946 -0.745192,-0.0645 -0.745192,0.1459 0,0.14579 -0.251322,0.61201 -0.558503,1.03605 -0.516764,0.71338 -0.543576,0.82083 -0.35873,1.43779 0.109882,0.36674 0.19978,1.12154 0.19978,1.67733 0,0.55579 0.02603,1.01053 0.05789,1.01053 0.03186,0 0.551384,-0.23905 1.154548,-0.53122 z m 9.183714,-1.34851 c 1.049269,-0.5426 1.596179,-1.7454 1.013502,-2.22897 -0.590039,-0.4897 -1.484772,0.4587 -1.80402,1.91221 -0.145669,0.66325 0.0041,0.72333 0.790518,0.31676 z m 16.791996,-4.91543 c 1.01159,-3.08252 0.95104,-5.65881 -0.0927,-3.94256 -0.41067,0.67528 -0.85927,3.05138 -0.99442,5.26713 l -0.0985,1.61428 0.37544,-0.80714 c 0.20648,-0.44393 0.57103,-1.4032 0.81011,-2.13171 z M 92.173182,121.0561 c 0.747178,-1.54152 0.843686,-2.33014 0.297812,-2.43367 -0.219995,-0.0418 -0.396699,0.12991 -0.576325,0.55982 -0.398231,0.9531 -0.971526,3.13265 -0.854715,3.24946 0.257476,0.25748 0.462002,0.009 1.133228,-1.37561 z m -69.678138,9.52145 c -0.163195,-0.233 -0.286388,-0.76982 -0.286388,-1.24796 0,-1.12622 0.64416,-4.8362 0.978739,-5.63696 0.23982,-0.57397 0.330525,-0.63605 0.855468,-0.58553 0.554293,0.0533 0.590337,0.10015 0.643142,0.83489 0.03076,0.4281 -0.02407,1.1535 -0.121857,1.61199 -0.09779,0.4585 -0.155987,0.85544 -0.129335,0.88209 0.02666,0.0266 0.470769,-0.64262 0.986924,-1.48728 0.97978,-1.60335 1.586209,-2.10207 2.136917,-1.75737 0.408261,0.25554 0.461775,1.08403 0.147703,2.28674 -0.144155,0.55203 -0.209227,1.00183 -0.144605,0.99954 0.06463,-0.002 0.432192,-0.56369 0.81682,-1.24758 0.914732,-1.62642 1.547677,-2.23884 2.15609,-2.08613 0.645003,0.16188 0.707145,0.64072 0.38391,2.95822 -0.154638,1.10871 -0.231752,2.21268 -0.171365,2.45328 0.129315,0.51524 0.597353,0.57088 1.243079,0.14778 0.36925,-0.24194 0.442099,-0.43294 0.442099,-1.15913 0,-1.04798 0.571135,-2.65451 1.216264,-3.4212 1.248001,-1.48316 3.452246,-1.31889 3.98555,0.29704 0.18048,0.54686 0.167683,0.78447 -0.07672,1.42443 -0.356236,0.93279 -1.298673,1.91003 -2.260106,2.34358 -0.810137,0.36532 -0.910198,0.72262 -0.282461,1.00864 0.599702,0.27324 2.000088,-0.2146 3.196436,-1.11351 l 0.931932,-0.70025 0.500735,0.47974 0.500735,0.47973 -0.40343,0.44051 c -0.705525,0.77038 -2.457528,1.79672 -3.443851,2.01745 -1.216747,0.2723 -2.117421,0.10041 -2.835417,-0.54112 l -0.568745,-0.50818 -0.544347,0.40334 c -0.29939,0.22184 -0.818709,0.4952 -1.154043,0.60748 -1.620266,0.54248 -1.986348,0.0481 -2.000755,-2.70162 l -0.0097,-1.84739 -0.805872,2.05786 c -0.44323,1.13182 -0.935666,2.20127 -1.094302,2.37656 -0.380979,0.42098 -1.070291,0.40605 -1.302703,-0.0282 -0.239617,-0.44773 -0.236978,-1.82075 0.006,-3.13527 0.105435,-0.57035 0.151935,-1.07676 0.103333,-1.12537 -0.0486,-0.0486 -0.59897,0.94804 -1.223041,2.21477 -0.991907,2.01334 -1.194553,2.31006 -1.610581,2.35821 -0.332618,0.0385 -0.562134,-0.068 -0.762295,-0.3538 z m 12.75361,-3.72971 c 0.791622,-0.48268 1.228001,-1.35286 0.966378,-1.92707 -0.15591,-0.34218 -0.2842,-0.40883 -0.600393,-0.31191 -0.626166,0.19194 -0.803145,0.39799 -1.106497,1.28829 -0.478125,1.40322 -0.324697,1.60019 0.740512,0.95069 z m 7.824378,3.65451 c -0.423879,-0.42387 -0.455869,-0.55832 -0.373428,-1.56943 0.155171,-1.90309 1.011828,-4.99589 1.511065,-5.45541 0.473747,-0.43605 1.402528,-0.54356 1.542595,-0.17855 0.04749,0.12376 -0.0679,0.78965 -0.256417,1.47975 -0.604346,2.21229 -0.937584,3.95286 -0.816969,4.26717 0.135482,0.35307 0.806905,0.39498 1.215564,0.0759 1.332148,-1.04019 1.252315,-0.88581 1.522375,-2.94393 0.301082,-2.29454 0.515992,-2.89178 1.092651,-3.03652 0.835756,-0.20975 1.014202,0.18983 0.888297,1.98913 l -0.11339,1.62046 0.802168,-1.6338 c 0.844333,-1.71969 1.416252,-2.21943 2.24057,-1.9578 0.558434,0.17724 0.616286,0.7737 0.29228,3.01346 -0.301978,2.08749 -0.210801,2.99958 0.299851,2.99953 0.125754,-2e-5 0.854175,-0.40082 1.618713,-0.89067 l 1.390068,-0.89064 v 0.8687 c 0,0.47844 -0.100725,0.95037 -0.224205,1.05049 -0.501877,0.40692 -2.860679,1.50476 -3.432463,1.59755 -0.528746,0.0858 -0.658253,0.03 -0.94431,-0.40739 -0.269201,-0.41154 -0.330557,-0.85374 -0.326389,-2.35226 l 0.0052,-1.84545 -1.170996,2.28683 c -1.106625,2.16111 -1.200574,2.28682 -1.709086,2.28682 -0.420802,0 -0.594492,-0.1173 -0.796847,-0.53809 l -0.258755,-0.5381 -1.152907,0.58293 c -1.42306,0.71953 -2.211889,0.75262 -2.845165,0.11934 z m 1.595993,-8.60444 c -0.401737,-0.28138 -0.54848,-1.1921 -0.261369,-1.62209 0.423906,-0.63486 1.783185,-0.80461 2.256341,-0.28178 1.050327,1.16061 -0.68786,2.81941 -1.994972,1.90387 z"
       id="path900"
       sodipodi:nodetypes="csssssssscsssssssssscsssssccssssccsscsscssssssssssscssssssscssssssssscsssssssssscssssscsssscssscsssscsscsssscsssssssssssscssssssssssssssssssssssssscccsscssccsscsssssssssscccscccccssssssssccsscssscssscssssssssssssscsssssssssssscccssscssscsssssssssssssssssssssssscssssscssssscssscsssssss" />
  </g>
</svg>
