<?xml version="1.0" encoding="UTF-8" standalone="no"?><svg xmlns="http://www.w3.org/2000/svg" xmlns:svg="http://www.w3.org/2000/svg" width="200mm" height="200mm" viewBox="0 0 200 200" version="1.2" baseProfile="tiny-ps"><title>me in Amsterdam</title><defs id="defs15"/><rect id="rect854" width="200.51724" height="201.02354" x="0.082550257" y="0.15957001" stroke-dasharray="none" stroke-miterlimit="4" fill-opacity="1" stroke-linejoin="round" stroke-linecap="round" stroke-width="1" stroke="none" fill="#ff6f32"/><g id="layer1"><path d="M78.1472 102.1663C68.7394 70.155 75.9987 39.064 94.287 33.7186c18.501-5.4075 40.2233 18.7343 48.5705 47.1935 9.3906 32.0163 1.3055 62.8246-16.808 68.7357-.5046 2.5497-1.4387 6.2878-.6607 9.1095 10.562.491 28.5914 4.3718 27.3495 17.9585-1.5421 16.8713-32.4493 14.4108-44.2482 9.4043-8.96-3.8018-20.7165-13.365-18.6562-21.8028 2.0602-8.4377 12.9195-9.5765 14.1445-7.7331 1.225 1.8434-.4059 3.3197-3.9012 4.5426-9.4148 3.294.194 16.8932 21.8342 20.6442 9.9068 1.7172 19.5215-.7773 19.6551-8.1287.1336-7.3513-7.535-10.1087-16.6212-9.7864-.9043 5.77-8.2083 2.8434-9.3424-.717-1.1342-3.5603-1.1856-12.5814.4389-14.044-16.7837-5.0453-29.6792-18.9742-37.8947-46.9286z" id="path4"/><path d="M135.219 80.2748c5.7697 28.1653 6.3888 54.2625-6.8222 60.546-13.2111 6.2837-30.1452-4.4024-38.9075-33.3969-8.8248-29.2012-10.3358-61.0771 5.466-65.3789 8.7555-2.3835 13.639 10.0284 18.4317 7.1515 3.154-1.8933.9392-5.3211.7409-6.8794 8.0667 5.1688 18.6245 25.9169 21.091 37.9577z" id="path6" fill="#fff"/><path d="M106.4235 72.9742c1.8334 7.4355.2199 10.5049-2.7346 11.2876-2.9545.7828-5.6122-.1824-7.9647-8.4529-1.5428-5.4241-.2199-10.5048 2.7346-11.2876 2.9545-.7827 6.6145 2.9777 7.9646 8.453zM126.793 68.5431c1.7875 7.1313.3177 10.0997-2.4257 10.8832-2.7433.7835-6.6873.1632-7.5088-8.046-.4888-4.884-.3176-10.0996 2.4257-10.883 2.7433-.7836 6.1926 2.7946 7.5088 8.0458zM127.8668 46.4573c2.0046 2.3345 4.754-3.0771 8.1552-4.3248 3.4012-1.2477 8.6935-1.305 12.2161-2.6752 4.7822-1.8602 6.9332-4.9902 2.4276-8.1717-4.7392-3.3463-9.234-.2808-12.987 1.975-4.6983 2.8238-13.383 9.038-9.812 13.1967zM133.7123 53.3254c-3.982-1.123 4.9873-6.6198 9.1573-8.0164 3.955-1.0795 8.7717-.4058 8.7509 3.2107-.0268 4.6566-7.9471 3.4774-11.6983 3.8293-2.6165.2804-4.944 1.3334-6.2099.9764zM146.3542 56.3946c3.2043-1.632 4.128 3.3387 1.6687 4.703-1.3903.7713-3.1119 1.05-4.7054.9248-2.478-.1947-8.7552-.7844-7.0026-2.5632 1.715-1.7408 7.2022-1.6197 10.0393-3.0646zM83.3187 37.5777c.428-2.173-11.5917-11.6146-17.8332-13.1225-6.4329-2.0418-20.087-5.1077-20.8952 1.3297-.8083 6.4374 12.9802 5.0567 20.1475 5.974 7.1673.9175 17.6615 10.4876 18.581 5.8188zM66.3744 39.0296c-2.4656-.4911-8.6695-2.297-10.8889.5816-1.1918 1.5458-.3219 4.494 1.1852 5.7344 3.0726 2.5288 7.959.045 11.9377.1225 2.7407.0533 6.8362 2.7083 8.2202.2356 2.0476-3.2697-7.9887-6.183-10.4542-6.674ZM72.9249 53.7661c-1.2697-4.282-11.3737-2.6471-14.7481.8787-1.4843 1.551-1.3455 4.9367.447 5.9248 2.3432 1.2915 5.488-1.7274 8.0645-2.9777 2.2006-1.0679 6.8602-1.7228 6.2366-3.8258z" id="path8"/></g></svg>
