<?xml version="1.0" encoding="UTF-8"?>
<svg
   width="200mm"
   height="200mm"
   viewBox="0 0 200 200"
   version="1.1"
   xmlns="http://www.w3.org/2000/svg">
  <style>
    path {
      fill: #000;
      stroke: none;
    }
  </style>
  <g id="layer1">
    <path
       d="m 78.147187,102.16632 c -9.407822,-32.011275 -2.148514,-63.102372 16.13989,-68.447734 18.501053,-5.407532 40.223273,18.734286 48.570543,47.19352 9.39058,32.016314 1.30545,62.824584 -16.808,68.735674 -0.50458,2.54968 -1.43872,6.2878 -0.66074,9.10953 10.56202,0.49101 28.5914,4.37178 27.3495,17.95852 -1.54211,16.87123 -32.44923,14.41076 -44.24817,9.40431 -8.960044,-3.80187 -20.716543,-13.36504 -18.656254,-21.80282 2.060273,-8.43777 12.919554,-9.57648 14.144524,-7.73312 1.22498,1.84337 -0.40588,3.31967 -3.90116,4.54259 -9.414792,3.29407 0.19395,16.89317 21.83414,20.6442 9.90685,1.71722 19.52154,-0.77732 19.65514,-8.12866 0.13356,-7.35132 -7.53503,-10.10872 -16.6212,-9.78641 -0.9043,5.77002 -8.20827,2.84334 -9.34244,-0.71696 -1.13419,-3.56035 -1.18559,-12.5815 0.4389,-14.04409 -16.78363,-5.04532 -29.679159,-18.97421 -37.894673,-46.92855 z"/>
    <path
       style="fill:#fff;"
       d="m 135.21897,80.274789 c 5.76975,28.165291 6.38882,54.262511 -6.82222,60.546101 -13.21106,6.2836 -30.145139,-4.40252 -38.907474,-33.39698 -8.824818,-29.201242 -10.335767,-61.077136 5.466097,-65.378874 8.755437,-2.38351 13.638837,10.028324 18.431597,7.151419 3.15403,-1.893227 0.93925,-5.321086 0.7409,-6.879367 8.0667,5.16883 18.6245,25.916913 21.0911,37.957717 z"/>
    <path
       d="m 106.42345,72.974243 c 1.83348,7.435476 0.21994,10.504822 -2.73456,11.287594 -2.95451,0.782771 -5.612212,-0.182477 -7.964645,-8.452916 -1.542833,-5.424117 -0.219944,-10.504822 2.734563,-11.287594 2.954502,-0.782772 6.614532,2.977646 7.964642,8.452916 z"/>
    <path
       d="m 126.79301,68.543108 c 1.78751,7.131261 0.31767,10.099701 -2.42567,10.883181 -2.74334,0.783464 -6.68736,0.163208 -7.50883,-8.045917 -0.48883,-4.884131 -0.31765,-10.099668 2.42565,-10.883148 2.74336,-0.78348 6.1926,2.794643 7.50885,8.045884 z"/>
    <path
       d="m 127.86679,46.45733 c 2.00462,2.334432 4.75409,-3.077168 8.15524,-4.32486 3.40116,-1.247659 8.69346,-1.304988 12.21611,-2.675209 4.78216,-1.860174 6.93316,-4.990175 2.42752,-8.171625 -4.73919,-3.346354 -9.23398,-0.280813 -12.987,1.974931 -4.69823,2.823858 -13.38301,9.038092 -9.81187,13.196763 z"
       />
    <path
       d="m 133.71231,53.325416 c -3.982,-1.122972 4.98731,-6.619766 9.15728,-8.01642 3.95504,-1.079527 8.77174,-0.405813 8.75086,3.210731 -0.0268,4.656596 -7.94707,3.477382 -11.69823,3.829291 -2.61652,0.280369 -4.94411,1.333364 -6.20991,0.976366 z"
       />
    <path
       d="m 146.3542,56.394581 c 3.20428,-1.631898 4.12798,3.338761 1.66871,4.70307 -1.39028,0.771277 -3.11187,1.049965 -4.70544,0.924735 -2.47803,-0.194729 -8.75517,-0.784386 -7.00261,-2.563203 1.71509,-1.740774 7.2022,-1.619678 10.03934,-3.064602 z"
       />
    <path
       d="M 83.318735,37.577653 C 83.746649,35.404683 71.726958,25.963084 65.485468,24.455231 59.052625,22.413354 45.3985,19.347533 44.590267,25.784922 c -0.808249,6.437389 12.980196,5.056693 20.147492,5.974066 7.167312,0.917373 17.661577,10.487464 18.580976,5.818665 z"
       />
    <path
       d="m 66.37435,39.02961 c -2.465575,-0.491122 -8.669466,-2.296932 -10.888846,0.58162 -1.19178,1.545748 -0.321904,4.49398 1.185159,5.734327 3.072622,2.528849 7.959043,0.04512 11.937757,0.122529 2.740673,0.05336 6.836186,2.708279 8.220208,0.235606 C 78.87622,42.434001 68.839925,39.520733 66.37435,39.02961 Z"
       />
    <path
       d="m 72.924897,53.766144 c -1.269678,-4.282025 -11.37366,-2.647146 -14.748111,0.878687 -1.484318,1.550903 -1.345534,4.9367 0.446986,5.924742 2.343194,1.291532 5.488033,-1.727352 8.06451,-2.97763 2.200655,-1.067916 6.860198,-1.722806 6.236615,-3.825799 z"
       />
  </g>
</svg>

