<svg id="Layer_1" data-name="Layer 1" xmlns="http://www.w3.org/2000/svg" viewBox="0 0 1451.95083 444.18926"><title>Artboard 1</title><path d="M509.0238,176.70636H533.301c2.262,0,3.728.80075,3.728,3.67043h0c0,2.80835,2.23461,2.03637,3.53787,1.52233a67.32605,67.32605,0,0,1,25.13389-5.19276c7.83229,0,13.93047,2.47334,17.08865,6.19792,3.0158,3.55665,3.16139,4.10261,8.3072,1.31472a62.61809,62.61809,0,0,1,29.27416-7.42957c22.306,0,26.95694,13.5197,20.14008,24.30335l-19.31392,30.87991a6.31076,6.31076,0,0,1-5.35413,3.02524l-21.69456.11676c-5.64961,0-7.83346-1.40963-3.98229-7.2078l16.96827-26.66852c4.003-6.39786,1.96547-10.7737-6.1041-10.7737-6.63507,0-13.24907,4.039-17.336,10.51892l-19.55985,31.03517a6.06215,6.06215,0,0,1-5.18657,2.92382H537.23119c-6.60484,0-7.76957-1.49231-4.01693-7.30081l17.03041-26.87657c4.003-6.39786-.07279-10.30053-7.17033-10.30053a21.44245,21.44245,0,0,0-18.603,10.205l-20.02573,31.35209a6.32626,6.32626,0,0,1-5.33148,2.92085H477.591c-5.06742,0-8.36747-.66729-3.987-7.22495l30.40589-48.25231A5.93541,5.93541,0,0,1,509.0238,176.70636ZM824.53723,196.082c3.93553-7.245-26.75226-8.74757-47.04538-3.06706-4.01673,1.12437-6.78672.3979-3.56077-4.80444l3.95466-6.2683c1.719-2.72476,3.01073-4.47153,7.96836-4.24555,12.01914.54785,29.20065-1.31369,49.02006-.58995,17.27674.63089,35.54593,5.39458,23.58567,24.31362l-17.65847,27.772c-3.41576,5.34989-4.10732,5.82209-10.58091,5.82209l-20.13365.03263a5.4194,5.4194,0,0,1-4.53287-2.43567h0a2.63038,2.63038,0,0,0-3.34784-.91568,63.66556,63.66556,0,0,1-25.374,6.17085c-6.451,0-29.59005-1.01325-21.49887-20.28561s32.74164-18.36908,44.5507-18.15029S822.40191,200.013,824.53723,196.082ZM791.97348,215.3c-2.43307,3.83862-.75934,7.66777,4.27066,7.66777,8.10635,0,15.16174-4.7298,20.77016-10.85856,1.9541-2.1354,2.17248-4.21006-1.9711-3.62259C806.70658,209.66858,795.988,208.96643,791.97348,215.3ZM640.236,304.509c3.93553-7.245-26.75226-8.74757-47.04538-3.06706-4.01673,1.12437-6.78672.3979-3.56077-4.80444l3.95466-6.2683c1.719-2.72476,3.01073-4.47153,7.96836-4.24555,12.01914.54785,29.20064-1.31369,49.02006-.58995,17.27674.63089,35.54593,5.39458,23.58567,24.31362l-17.65847,27.772c-3.41576,5.34989-4.10732,5.82209-10.58091,5.82209l-20.13365.03263a5.4194,5.4194,0,0,1-4.53287-2.43567h0a2.63038,2.63038,0,0,0-3.34784-.91568,63.66556,63.66556,0,0,1-25.374,6.17085c-6.451,0-29.59005-1.01325-21.49887-20.28561s32.74164-18.36908,44.5507-18.15029S638.10071,308.44,640.236,304.509Zm-32.56375,19.218c-2.43307,3.83862-.75934,7.66777,4.27066,7.66777,8.10635,0,15.16174-4.7298,20.77016-10.85856,1.9541-2.1354,2.17248-4.21006-1.9711-3.62259C622.40538,318.09557,611.68675,317.39342,607.67228,323.727ZM676.76483,176.67h22.78293c4.12507,0,4.86619,1.0434,5.019,2.62945h0c.33252,1.93238,1.26248,2.7004,3.83779,1.6412,6.01774-2.475,13.17525-4.09942,22.75555-4.16764,14.4671-.103,34.51006,1.78966,17.08584,29.912-14.7691,23.83706-31.2549,29.60636-53.76729,29.60636-8.44734,0-13.3363-1.31945-16.48564-3.36863-3.85077-2.50559-4.40886-3.16075-7.75549,1.89145l-15.61832,24.90725a6.86225,6.86225,0,0,1-5.81377,3.21665H626.88005c-5.18682,0-7.24329-1.47983-3.68763-6.6771l48.21809-76.63393A6.326,6.326,0,0,1,676.76483,176.67Zm12.16022,28.348c-8.11645,12.89106-2.64562,17.557,3.595,17.557s14.0383-3.71874,21.79-16.03127c7.38-11.7222,2.63581-15.74872-4.15841-15.74872C702.66287,190.795,694.03638,196.9,688.92505,205.018Zm60.22108,101.48426c-22.44573.79886-24.41718-3.40879-21.3164-6.36863,3.203-3.0574,10.92869-3.78585,21.75366-3.78585a95.047,95.047,0,0,1,27.15653,3.572c5.86724,1.76395,7.37168,1.66689,11.04487-3.6944l1.16491-1.58807c3.315-4.26111,3.412-6.73615-3.09363-7.92521a198.31435,198.31435,0,0,0-40.12381-3.32313c-12.78527.44891-34.21148,1.02275-50.23677,17.46975-12.909,13.24874-8.00294,25.22416,22.08123,24.70186,13.97669-.24265,16.04869,1.60831,13.95532,5.48719-1.65,3.0574-5.55663,4.55856-18.46862,4.55856-8.48273,0-19.94235.06019-29.01935-4.306-4.46648-2.14847-5.77679-2.09994-8.09692,2.99858l-.41875.944c-2.50238,5.07093-1.33766,6.23566,3.69958,7.89645,9.93953,3.27709,24.40409,4.39067,38.97415,4.39067,17.93206,0,40.60389-5.20666,51.063-18.65395C775.38848,321.00326,779.10323,305.436,749.14613,306.50221ZM931.76466,192.24815c4.94727,0,11.8235.62257,17.04055,2.94015,5.67157,2.5195,7.23667,1.71875,10.1233-3.51654l3.001-4.91227c3.02982-4.59348,2.04709-6.74094-3.70575-6.76211-14.9118-.05486-19.32221-3.09626-36.05512-3.09626-31.1628,0-57.66678,17.34454-57.66678,40.3886,0,18.61567,24.82319,22.12977,38.72709,22.12977,7.46267,0,14.42924-.19482,21.1632-1.57968,7.00856-1.44133,8.10049-2.46046,11.41642-7.79416l4.25137-6.60582c3.02441-4.6942,1.31373-6.2229-3.46642-4.00933a52.31255,52.31255,0,0,1-21.86292,4.99316c-14.18727,0-18.98537-8.554-12.3751-19.36348C910.11892,192.365,924.63,192.24815,931.76466,192.24815ZM1109.94321,316.342l8.29982-13.12881c1.60033-2.71843,3.27462-3.48972,6.30786-3.48972l19.14583-.08282a6.40735,6.40735,0,0,0,5.40855-3.013l2.7173-4.35055c2.84119-4.18177,2.16177-6.37486-3.53449-6.37486h-13.06052c-4.17373,0-5.50831-1.4224-2.75144-4.99469l2.22561-3.52034c2.78235-4.2877,1.836-6.35553-3.50109-6.35553H1108.7513a6.52247,6.52247,0,0,0-5.51314,3.0371l-5.51641,8.72585a6.67393,6.67393,0,0,1-5.64116,3.10761h-25.67994c-4.62364,0-5.109-1.85918-2.78065-5.09345l2.30336-3.5827c2.62361-3.617,2.017-6.19441-3.38169-6.19441h-22.247a7.30225,7.30225,0,0,0-6.17225,3.40019l-5.6159,8.88321a5.55618,5.55618,0,0,1-4.69638,2.58716H1016.812a6.96816,6.96816,0,0,0-5.97075,3.37576l-2.66524,4.42978c-3.08229,4.55463-.68005,5.88921,3.17,5.95335l1.80727.09149c3.85459.15981,3.83032,1.97969,2.23542,4.31239l-7.76133,12.277c-17.35963,27.7086-1.63331,29.11132,14.33058,29.1094,8.12485-.00093,19.52876-1.5924,26.28526-2.68695,5.19869-.84219,6.8533-2.28516,8.09612-4.67874l.50746-.97732c2.23674-4.11054.92643-6.00322-3.752-4.90281a47.08455,47.08455,0,0,1-10.60831,1.03333c-11.06511,0-6.77506-8.329-2.0385-15.83138l9.6905-15.29415a5.02644,5.02644,0,0,1,4.22062-2.33614l26.47288-.13327c4.78547,0,5.33143,1.506,2.91382,5.258l-7.23221,11.44c-17.76973,27.99978-1.60664,29.11132,14.35725,29.10939,8.24975-.00094,21.72947-2.028,28.35094-3.11242a7.916,7.916,0,0,0,5.73971-4.15309l.55324-1.061c2.09345-3.53253,1.51109-6.29875-3.73527-4.91485a40.3,40.3,0,0,1-9.94359.96982C1099.50922,333.17979,1104.82327,324.03185,1109.94321,316.342Zm242.3233-219.16441H231.11023c-10.8101,0-19.61552,5.13741-24.58337,13.05816L88.29715,298.73615c-5.47088,7.837-1.10316,20.39415,11.30843,20.39415H398.0608a5.86612,5.86612,0,0,0,5.06611-2.90876l3.906-6.69107a2.93407,2.93407,0,0,0-2.53392-4.41326H111.03443c-5.05927,0-5.96921-3.63976-3.80817-6.83833L219.827,118.50655c2.83244-4.51553,7.27953-7.35232,13.8675-7.35232l1105.7957-.0728c6.84354,0,7.93547,3.203,4.61866,8.32584L1285.04009,213.65c-2.83248,4.51553-6.77,8.80823-14.41329,8.33792l-258.205.519s-2.37779-.001-3.11875-.001c-13.74549,0-5.82171-10.2335-3.06771-14.53793l9.31108-14.72845c1.23185-1.94857,3.40258-2.52007,5.70787-2.52007l17.98039.132c3.567,0,5.23268-1.15737,6.46323-3.10395l3.47814-5.49235c2.06989-3.01311.614-5.2455-3.414-5.2455h-14.65612c-3.664,0-4.24639-1.72282-2.40468-4.566l2.69518-4.2464c2.3726-3.666,1.93583-5.96-3.27911-5.96l-23.04776.01679a5.99745,5.99745,0,0,0-5.04421,2.75994l-6.12548,9.552a5.442,5.442,0,0,1-4.58093,2.50429h-7.7566a5.86923,5.86923,0,0,0-5.01068,2.81292l-3.312,5.37024c-2.60238,3.95545-.7279,5.64794,3.02945,5.54851l1.38437.02582c4.66744.07361,5.01322,1.63871,2.7593,5.12124l-7.59814,12.0189c-17.57356,27.66616-2.28655,28.38371,17.19477,28.38371l283.0922.0104a28.25181,28.25181,0,0,0,24.38642-13.28361l66.20729-105.37267C1369.81017,107.51446,1362.82183,97.17754,1352.26651,97.17754Zm-881.66693,112.387c-11.34466,17.98716-26.18,26.42575-60.60733,26.42575-29.07914,0-47.10773-9.09544-31.10715-34.46464,11.34467-17.98716,26.84735-26.31059,59.85063-26.31059C467.81487,175.21509,486.60016,184.19538,470.59958,209.56457Zm-30.63432-2.69c5.44807-8.638,6.91013-18.79616-5.43531-18.79616-12.40495,0-18.47756,5.66192-24.92573,15.88561-5.44807,8.638-7.13394,19.22211,5.24126,19.22211C427.43906,223.18614,433.51709,217.09827,439.96526,206.87458Zm553.6503,98.51981c-2.40485,4.52644-6.40208,10.70566-8.94039,14.49573-2.09941,3.13473-3.22774,3.94628-8.06863,3.94628H928.63446c-3.62156,0-4.57434,1.56952-4.95007,3.51977-.76435,3.96734,1.60149,8.75363,18.126,8.75363,13.54209,0,23.02975-1.60422,29.309-3.47892,5.23236-1.56215,5.99671,1.27686,3.5392,4.6824l-2.56536,4.09237c-2.293,3.31219-3.78536,3.749-7.53431,4.00374-7.32868.49807-22.698,2.02122-38.57776,1.49231-14.12881-.4706-50.22147-.22792-28.186-35.16552,10.82724-17.16676,20.91366-25.85047,60.73577-25.85047C984.55416,285.88571,1002.09756,289.42858,993.61556,305.39439Zm-37.06411,3.98135c4.80373-7.99778,2.87541-11.21047-4.98648-11.21047-7.78909,0-12.266,2.40224-17.87123,10.6645-1.30411,1.92229-.1456,3.385,2.36584,3.385h15.43258A5.67839,5.67839,0,0,0,956.55145,309.37574ZM400.98136,145.49131c-21.70693-.48832-29.00314-5.54656-57.73-5.54656-26.07833,0-78.365,4.63345-107.55593,50.44451-42.17039,66.18054,57.73238,69.87856,104.39683,55.80238a12.25359,12.25359,0,0,0,6.87813-5.26578l5.12044-8.25063c3.35511-5.40631,2.53529-7.63276-1.39245-6.09336q-.2853.12121-.58119.24371l-.02339.01013-.00011-.00032c-7.15711,2.95953-18.97344,6.43153-35.492,6.76047-27.10376.53974-45.88053-20.77091-27.39054-45.61836,18.704-25.135,48.70356-28.378,63.7929-28.378,13.27756,0,27.34512,3.33238,36.45436,8.71414a4.13858,4.13858,0,0,0,5.66861-1.44326l10.19088-17.16295A2.79171,2.79171,0,0,0,400.98136,145.49131ZM593.82947,255.71993c-21.70692-.48831-29.00313-5.54655-57.73-5.54655-26.07833,0-78.365,4.63344-107.55593,50.4445-42.17039,66.18054,57.73238,69.87856,104.39683,55.80238a12.25354,12.25354,0,0,0,6.87812-5.26578l5.12045-8.25062c3.35511-5.40632,2.53529-7.63277-1.39246-6.09336q-.28529.1212-.58118.2437l-.02339.01013-.00011-.00032c-7.15711,2.95953-18.97344,6.43153-35.492,6.76048-27.10376.53973-45.88053-20.77092-27.39054-45.61837,18.704-25.135,48.70356-28.378,63.7929-28.378,13.27756,0,27.34512,3.33238,36.45436,8.71415a4.13859,4.13859,0,0,0,5.66861-1.44327L596.166,259.936A2.79172,2.79172,0,0,0,593.82947,255.71993Zm260.25988,50.78228c-22.44573.79886-24.41718-3.40879-21.31639-6.36863,3.203-3.0574,10.92869-3.78585,21.75366-3.78585a95.04708,95.04708,0,0,1,27.15653,3.572c5.86723,1.76395,7.37167,1.66689,11.04486-3.6944l1.16491-1.58807c3.315-4.26111,3.412-6.73615-3.09363-7.92521a198.31435,198.31435,0,0,0-40.12381-3.32313c-12.78527.44891-34.21148,1.02275-50.23676,17.46975-12.909,13.24874-8.00295,25.22416,22.08123,24.70186,13.97669-.24265,16.04868,1.60831,13.95532,5.48719-1.65,3.0574-5.55663,4.55856-18.46863,4.55856-8.48272,0-19.94234.06019-29.01935-4.306-4.46647-2.14847-5.77679-2.09994-8.09692,2.99858l-.41875.944c-2.50238,5.07093-1.33765,6.23566,3.69958,7.89645,9.93953,3.27709,24.40409,4.39067,38.97415,4.39067,17.93206,0,40.60389-5.20666,51.063-18.65395C880.3317,321.00326,884.04646,305.436,854.08935,306.50221Zm390.41828-1.10782c-2.40485,4.52644-6.40208,10.70566-8.9404,14.49573-2.09941,3.13473-3.22773,3.94628-8.06862,3.94628h-47.97208c-3.62156,0-4.57434,1.56952-4.95008,3.51977-.76435,3.96734,1.6015,8.75363,18.126,8.75363,13.5421,0,23.02975-1.60422,29.309-3.47892,5.23236-1.56215,5.99671,1.27686,3.5392,4.6824l-2.56536,4.09237c-2.29306,3.31219-3.78536,3.749-7.53431,4.00374-7.32869.49807-22.698,2.02122-38.57776,1.49231-14.12881-.4706-50.22147-.22792-28.186-35.16552,10.82724-17.16676,20.91366-25.85047,60.73577-25.85047C1235.44623,285.88571,1252.98963,289.42858,1244.50763,305.39439Zm-37.06411,3.98135c4.80373-7.99778,2.87541-11.21047-4.98648-11.21047-7.78909,0-12.266,2.40224-17.87124,10.6645-1.3041,1.92229-.14559,3.385,2.36585,3.385h15.43258A5.67839,5.67839,0,0,0,1207.44352,309.37574Z"/></svg>